<?xml version="1.0" encoding="utf-8"?>
<!-- Generator: Adobe Illustrator 23.0.1, SVG Export Plug-In . SVG Version: 6.00 Build 0)  -->
<svg version="1.1" id="Layer_1" xmlns="http://www.w3.org/2000/svg" xmlns:xlink="http://www.w3.org/1999/xlink" x="0px" y="0px"
	 viewBox="0 0 288 166.24" style="enable-background:new 0 0 288 166.24;" xml:space="preserve">
<style type="text/css">
	.st0{fill:#5E1815;}
	.st1{fill:none;stroke:#238B43;stroke-width:3;stroke-linecap:round;stroke-linejoin:bevel;stroke-miterlimit:10;}
	.st2{fill:none;stroke:#238B43;stroke-width:2;stroke-linecap:round;stroke-linejoin:bevel;stroke-miterlimit:10;}
	.st3{fill:none;stroke:#238B43;stroke-linecap:round;stroke-linejoin:bevel;stroke-miterlimit:10;}
	.st4{fill:#FFFFFF;}
	.st5{fill:#4A1615;}
	.st6{fill:#CCCCCB;}
	.st7{fill:#F2F2F3;}
	.st8{fill:#B3B3B3;}
</style>
<g>
	<path class="st0" d="M81.76,61.16c0.84,0.75,1.66,1.33,2.45,1.75c0.79,0.42,1.52,0.72,2.17,0.91c0.75,0.28,1.49,0.42,2.24,0.42
		v1.82H81.9h-0.98h-9.38v-1.4c0.28-0.09,0.56-0.23,0.84-0.42c0.47-0.37,0.65-0.84,0.56-1.4c-0.19-0.47-0.37-0.89-0.56-1.26
		c-0.19-0.37-0.37-0.75-0.56-1.12c-0.28-0.37-0.47-0.75-0.56-1.12L58.24,38.76h-0.98h-9.8v21c0.19,1.03,0.56,1.82,1.12,2.38
		c0.56,0.56,1.12,0.98,1.68,1.26c0.65,0.37,1.31,0.61,1.96,0.7v1.96h-7.7H44.1h-7.7V64.1c0.65-0.09,1.31-0.33,1.96-0.7
		c0.56-0.28,1.1-0.7,1.61-1.26c0.51-0.56,0.91-1.35,1.19-2.38V11.32c-0.56-1.77-1.49-2.99-2.8-3.64c-0.65-0.37-1.31-0.61-1.96-0.7
		V5.02h7.7v0.14h2.52h6.72h7.28c0.19,0,1.03,0.19,2.52,0.56c1.49,0.37,3.1,1.17,4.83,2.38c1.73,1.21,3.29,2.96,4.69,5.25
		c1.4,2.29,2.1,5.3,2.1,9.03c0,2.24-0.33,4.18-0.98,5.81c-0.65,1.63-1.52,3.03-2.59,4.2c-1.07,1.17-2.24,2.15-3.5,2.94
		c-1.26,0.79-2.5,1.42-3.71,1.89l12.74,19.32c0.09,0.09,0.61,0.58,1.54,1.47C79.19,58.89,80.36,59.94,81.76,61.16z M56.42,36.1
		c2.24-0.09,4.25-0.65,6.02-1.68c1.49-0.84,2.87-2.17,4.13-3.99c1.26-1.82,1.89-4.46,1.89-7.91c0-3.27-0.63-5.88-1.89-7.84
		s-2.64-3.45-4.13-4.48c-1.77-1.12-3.78-1.91-6.02-2.38h-8.96V36.1H56.42z"/>
	<path class="st0" d="M112.66,61.87c0.12,0.67,0.35,1.18,0.68,1.55c0.33,0.36,0.68,0.67,1.05,0.91c0.42,0.24,0.88,0.42,1.36,0.55
		v1.18h-4.96h-0.35h-1.33v-4.19c-0.61,0.49-1.43,1.05-2.46,1.68c-1.03,0.64-2.34,1.26-3.91,1.87c-2.43,0.73-4.4,1.03-5.92,0.91
		c-1.52-0.12-2.7-0.42-3.55-0.91c-1.03-0.55-1.79-1.27-2.28-2.18c-0.85-1.46-1.12-2.78-0.82-3.96c0.3-1.18,0.96-2.27,1.96-3.28
		s2.23-1.93,3.68-2.78c1.46-0.85,2.94-1.64,4.46-2.37c1.94-0.91,3.7-1.73,5.28-2.46c1.58-0.73,2.76-1.27,3.55-1.64v-0.55
		c-0.43-1.21-0.97-2.27-1.64-3.18c-0.61-0.79-1.41-1.5-2.41-2.14c-1-0.64-2.26-0.92-3.78-0.86c-1.58,0.06-2.9,0.27-3.96,0.64
		c-1.06,0.36-1.9,0.79-2.5,1.27c-0.73,0.55-1.27,1.12-1.64,1.73c0.55,0,0.96,0.11,1.23,0.32c0.27,0.21,0.49,0.46,0.64,0.73
		c0.15,0.27,0.24,0.55,0.27,0.82c0.03,0.27,0.05,0.5,0.05,0.68c0,0.36-0.11,0.9-0.32,1.59c-0.21,0.7-0.9,1.05-2.05,1.05
		c-1.15,0-1.88-0.44-2.18-1.32c-0.3-0.88-0.33-1.83-0.09-2.87c0.06-0.55,0.33-1.23,0.82-2.05c0.49-0.82,1.2-1.61,2.14-2.37
		c0.94-0.76,2.14-1.42,3.59-2c1.46-0.58,3.21-0.86,5.28-0.86c2.06,0,3.74,0.47,5.04,1.41c1.3,0.94,2.3,1.96,3.01,3.05
		c0.83,1.27,1.45,2.73,1.86,4.37v12.38c0,0.67,0.01,1.31,0.05,1.91C112.56,61.11,112.6,61.57,112.66,61.87z M109.11,48.49
		c-0.55,0.18-1.35,0.5-2.41,0.96c-1.06,0.46-2.2,1.02-3.41,1.68c-1.21,0.67-2.4,1.41-3.55,2.23c-1.15,0.82-2.14,1.71-2.96,2.68
		c-0.82,0.97-1.35,1.99-1.59,3.05c-0.24,1.06-0.03,2.14,0.64,3.23c0.73,1.27,1.71,1.91,2.96,1.91c1.24,0,2.53-0.29,3.87-0.86
		c1.33-0.58,2.59-1.3,3.78-2.18c1.18-0.88,2.08-1.56,2.68-2.05V48.49z"/>
	<path class="st0" d="M145.96,66.06h-3.37h-3.37v-2.37c-0.85,0.67-1.96,1.23-3.32,1.68c-1.36,0.46-3.2,0.68-5.5,0.68
		c-1.82,0-3.47-0.36-4.96-1.09c-1.49-0.73-2.77-1.73-3.87-3c-1.09-1.27-1.97-2.74-2.64-4.41c-0.67-1.67-1.06-3.44-1.18-5.32
		c-0.12-1.64,0.03-3.33,0.46-5.1c0.42-1.76,1.12-3.37,2.09-4.82c0.97-1.46,2.21-2.65,3.73-3.59c1.52-0.94,3.37-1.41,5.55-1.41
		c1.46,0,2.71,0.18,3.78,0.55c1.06,0.36,1.97,0.8,2.73,1.32c0.76,0.52,1.39,1.09,1.91,1.73c0.51,0.64,0.92,1.23,1.23,1.77V26.02
		v-0.55c-0.12-0.85-0.35-1.5-0.68-1.96c-0.33-0.46-0.71-0.83-1.14-1.14c-0.49-0.3-1-0.51-1.55-0.64v-1.27h3.37h1.82h1.55v40.04v0.55
		c0.06,0.85,0.27,1.5,0.64,1.96c0.36,0.46,0.76,0.83,1.18,1.14c0.48,0.3,1,0.52,1.55,0.64V66.06z M131.41,63.6
		c1.94,0.12,3.55-0.06,4.82-0.54c1.27-0.48,2.28-0.97,3-1.45V44.38c-0.3-0.42-0.7-0.92-1.18-1.5c-0.49-0.57-1.09-1.1-1.82-1.59
		c-0.73-0.48-1.55-0.88-2.46-1.18c-0.91-0.3-1.91-0.42-3-0.36c-1.7,0.12-3.09,0.65-4.19,1.59c-1.09,0.94-1.96,2.01-2.59,3.22
		c-0.64,1.21-1.08,2.4-1.32,3.58c-0.24,1.18-0.4,2.04-0.46,2.58c0,0.67,0.08,1.69,0.23,3.08c0.15,1.39,0.55,2.78,1.18,4.17
		s1.56,2.64,2.78,3.76C127.61,62.86,129.28,63.48,131.41,63.6z"/>
	<path class="st0" d="M165.12,37.3c2.19,0,4.06,0.47,5.62,1.41s2.8,2.14,3.74,3.59c0.94,1.46,1.63,3.06,2.05,4.82
		c0.43,1.76,0.58,3.46,0.46,5.1c-0.12,1.88-0.52,3.66-1.19,5.32c-0.67,1.67-1.55,3.14-2.65,4.41c-1.1,1.27-2.39,2.28-3.88,3
		c-1.49,0.73-3.15,1.09-4.98,1.09c-2.31,0-4.16-0.23-5.53-0.68c-1.37-0.45-2.48-1.01-3.33-1.68v2.37h-1.55h-1.82h-3.46v-1.27
		c0.55-0.12,1.06-0.33,1.55-0.64c0.42-0.3,0.8-0.68,1.14-1.14c0.33-0.46,0.56-1.11,0.68-1.96c0-0.3,0.01-0.59,0.05-0.86
		c0.03-0.27,0.04-0.5,0.04-0.68V26.93c0-0.18-0.02-0.39-0.04-0.64c-0.03-0.24-0.05-0.51-0.05-0.82c-0.12-0.85-0.35-1.5-0.68-1.96
		c-0.33-0.46-0.71-0.83-1.14-1.14c-0.49-0.3-1-0.51-1.55-0.64v-1.27h3.46h1.82h1.55l0.01,22.2c0.3-0.55,0.7-1.14,1.19-1.77
		c0.49-0.64,1.13-1.21,1.92-1.73c0.79-0.51,1.72-0.96,2.79-1.32C162.39,37.49,163.66,37.3,165.12,37.3z M163.25,63.6
		c2.06-0.12,3.71-0.75,4.96-1.9c1.24-1.15,2.17-2.45,2.77-3.9c0.61-1.45,1-2.86,1.18-4.22c0.18-1.36,0.27-2.31,0.27-2.85
		s-0.14-1.4-0.41-2.58c-0.27-1.18-0.73-2.37-1.37-3.58c-0.64-1.21-1.5-2.28-2.59-3.22c-1.09-0.94-2.49-1.46-4.19-1.59
		c-1.09-0.06-2.09,0.06-3,0.36c-0.91,0.3-1.73,0.7-2.46,1.18c-0.73,0.48-1.33,1.01-1.82,1.59c-0.49,0.57-0.88,1.07-1.18,1.5V61.6
		c0.73,0.48,1.73,0.97,3,1.45C159.7,63.54,161.31,63.72,163.25,63.6z"/>
	<path class="st0" d="M200.83,63.01c0.36,0.46,0.76,0.83,1.18,1.14c0.49,0.3,1,0.52,1.55,0.64v1.27h-3.37h-1.91h-1.46v-4.64
		c-0.36,0.43-0.8,0.93-1.32,1.5c-0.52,0.58-1.14,1.11-1.87,1.59c-0.73,0.49-1.55,0.9-2.46,1.23s-1.88,0.5-2.91,0.5
		c-2.85-0.06-4.87-0.96-6.05-2.68c-1.18-1.73-1.77-3.84-1.77-6.32V41.94c-0.12-0.73-0.35-1.32-0.68-1.77
		c-0.33-0.45-0.71-0.8-1.14-1.05c-0.49-0.24-1-0.46-1.55-0.64v-1.27h3.37h1.91h1.46v20.02c0.06,1.15,0.27,2.18,0.64,3.09
		c0.3,0.79,0.8,1.49,1.5,2.09c0.7,0.61,1.68,0.91,2.96,0.91c3.4,0,6.04-1.58,7.92-4.73V44.4c-0.06-0.12-0.09-0.3-0.09-0.55
		c0-0.18-0.02-0.41-0.04-0.68c-0.03-0.27-0.05-0.59-0.05-0.96c-0.12-0.85-0.35-1.5-0.68-1.96c-0.33-0.46-0.71-0.83-1.14-1.14
		c-0.49-0.3-1-0.51-1.55-0.64v-1.27h5.28h1.64v23.57v0.27C200.25,61.9,200.47,62.55,200.83,63.01z"/>
	<path class="st0" d="M221.03,37.21c0.55,0.12,1.06,0.3,1.55,0.55c0.36,0.24,0.71,0.59,1.05,1.05c0.33,0.46,0.47,1.08,0.41,1.87
		c-0.06,0.49-0.21,0.88-0.46,1.18c-0.18,0.3-0.44,0.58-0.77,0.82c-0.33,0.24-0.77,0.33-1.32,0.27c-0.79,0-1.37-0.17-1.73-0.5
		c-0.36-0.33-0.61-0.71-0.73-1.14c-0.18-0.48-0.27-1-0.27-1.55c-0.91-0.3-1.79-0.33-2.64-0.09c-0.73,0.18-1.52,0.62-2.37,1.32
		c-0.85,0.7-1.64,1.87-2.37,3.5v17.47c0.18,0.67,0.44,1.18,0.77,1.55c0.33,0.36,0.68,0.64,1.05,0.82c0.42,0.24,0.88,0.4,1.37,0.46
		v1.27h-3.18h-1.33h-0.71h-1.33h-3.09v-1.27c0.42-0.06,0.85-0.21,1.27-0.46c0.3-0.18,0.64-0.46,1-0.82
		c0.36-0.36,0.64-0.85,0.82-1.46V42.22c-0.12-0.79-0.33-1.41-0.64-1.87c-0.3-0.46-0.67-0.83-1.09-1.14c-0.49-0.3-1-0.51-1.55-0.64
		V37.3h3.28h1.86h1.51v5c0.73-1.21,1.92-2.33,3.59-3.37C216.65,37.91,218.66,37.33,221.03,37.21z"/>
	<path class="st0" d="M248.87,63.01c0.36,0.46,0.76,0.83,1.18,1.14c0.49,0.3,1,0.52,1.55,0.64v1.27h-3.37h-1.59h-0.18h-1.59h-3.37
		v-1.27c0.55-0.12,1.06-0.33,1.55-0.64c0.42-0.3,0.8-0.68,1.14-1.14c0.33-0.46,0.56-1.11,0.68-1.96v-1.73V46.4
		c-0.06-1.15-0.27-2.18-0.64-3.09c-0.3-0.79-0.8-1.5-1.5-2.14c-0.7-0.64-1.65-0.96-2.87-0.96c-3.4,0-6.04,1.58-7.92,4.73v14.1
		c0,0.12,0.01,0.36,0.05,0.73c0.03,0.36,0.04,0.79,0.04,1.27c0.06,0.85,0.27,1.5,0.64,1.96c0.36,0.46,0.76,0.83,1.18,1.14
		c0.48,0.3,1,0.52,1.55,0.64v1.27h-3.46h-1.55h-0.27h-1.55h-3.46v-1.27c0.55-0.12,1.06-0.33,1.55-0.64c0.42-0.3,0.8-0.68,1.14-1.14
		c0.33-0.46,0.56-1.11,0.68-1.96c0-0.73,0.03-1.21,0.09-1.46V44.67c-0.06-0.24-0.09-0.7-0.09-1.37c-0.12-0.85-0.35-1.56-0.68-2.14
		c-0.33-0.58-0.71-1.08-1.14-1.5c-0.49-0.48-1-0.88-1.55-1.18v-1.27h3.46h1.82h1.55l-0.02,4.91c0.3-0.42,0.72-0.91,1.27-1.46
		c0.54-0.55,1.18-1.06,1.9-1.55c0.72-0.48,1.54-0.91,2.45-1.27c0.91-0.36,1.87-0.55,2.9-0.55c2.78,0.06,4.77,0.97,5.98,2.73
		c1.21,1.76,1.81,3.88,1.81,6.37v12.92v1.73C248.29,61.9,248.51,62.55,248.87,63.01z"/>
</g>
<polyline class="st1" points="54.33,92.4 9,92.4 9,20.47 30.14,20.47 "/>
<polyline class="st2" points="177.03,20.47 279,20.47 279,92.4 232.37,92.4 "/>
<polyline class="st3" points="49.85,87.68 13.47,87.68 13.47,25.19 30.44,25.19 "/>
<polyline class="st3" points="177.03,25.19 274.4,25.19 274.4,87.68 236.97,87.68 "/>
<g>
	<polygon class="st4" points="152.81,146.07 134.39,146.07 137.09,114.1 150.07,114.1 	"/>
	<polygon class="st0" points="134.39,146.07 115.47,146.07 124.91,114.1 137.09,114.1 	"/>
	<polygon class="st4" points="115.47,146.07 96.27,146.07 112.6,114.1 124.91,114.1 	"/>
	<polygon class="st0" points="96.27,146.07 77.61,146.07 99.61,114.1 112.6,114.1 	"/>
	<polygon class="st4" points="77.61,146.07 58.96,146.07 86.62,114.1 99.61,114.1 	"/>
	<polygon class="st0" points="58.96,146.07 39.72,146.07 73.66,114.1 86.65,114.1 	"/>
	<polygon class="st4" points="39.72,146.07 20.72,146.07 60.74,114.1 73.74,114.1 	"/>
	<polygon class="st0" points="20.72,146.07 2.13,146.07 49.56,114.1 60.74,114.1 	"/>
	<polygon class="st0" points="152.81,146.07 172.21,146.07 163.09,114.1 150.07,114.1 	"/>
	<polygon class="st4" points="172.21,146.07 190.87,146.07 175.4,114.1 163.09,114.1 	"/>
	<polygon class="st0" points="190.87,146.07 209.59,146.07 188.39,114.1 175.4,114.1 	"/>
	<polygon class="st4" points="209.59,146.07 228.25,146.07 201.38,114.1 188.39,114.1 	"/>
	<polygon class="st0" points="228.25,146.07 247.49,146.07 214.34,114.1 201.35,114.1 	"/>
	<polygon class="st4" points="247.49,146.07 267.52,146.07 227.26,114.1 214.26,114.1 	"/>
	<polygon class="st0" points="267.52,146.07 285.87,146.07 238.44,114.1 227.26,114.1 	"/>
	<path class="st5" d="M2.13,146.07v8.2c3.75,5.58,15.71,5.39,18.6,0v-8.2H2.13z"/>
	<path class="st5" d="M39.72,146.07v8.2c3.88,5.58,16.25,5.39,19.24,0v-8.2H39.72z"/>
	<path class="st5" d="M77.61,146.07v8.2c3.76,5.58,15.75,5.39,18.65,0v-8.2H77.61z"/>
	<path class="st5" d="M115.58,146.07v8.2c3.79,5.58,15.88,5.39,18.81,0v-8.2H115.58z"/>
	<path class="st5" d="M152.81,146.07v8.2c3.91,5.58,16.38,5.39,19.39,0v-8.2H152.81z"/>
	<path class="st5" d="M190.87,146.07v8.2c3.77,5.58,15.81,5.39,18.72,0v-8.2H190.87z"/>
	<path class="st5" d="M228.25,146.07v8.2c3.88,5.58,16.25,5.39,19.24,0v-8.2H228.25z"/>
	<path class="st5" d="M267.52,146.07v8.2c3.7,5.58,15.5,5.39,18.35,0v-8.2H267.52z"/>
	<path class="st6" d="M20.72,146.07v8.2c3.83,5.58,16.04,5.39,18.99,0v-8.2H20.72z"/>
	<path class="st6" d="M58.96,146.07v8.2c3.76,5.58,15.75,5.39,18.65,0v-8.2H58.96z"/>
	<path class="st6" d="M96.39,146.07v8.2c3.84,5.58,16.11,5.39,19.08,0v-8.2H96.39z"/>
	<path class="st6" d="M134.6,146.07v8.2c3.67,5.58,15.38,5.39,18.22,0v-8.2H134.6z"/>
	<path class="st6" d="M172.21,146.07v8.2c3.76,5.58,15.76,5.39,18.66,0v-8.2H172.21z"/>
	<path class="st6" d="M209.59,146.07v8.2c3.76,5.58,15.75,5.39,18.65,0v-8.2H209.59z"/>
	<path class="st6" d="M247.49,146.07v8.2c4.04,5.58,16.92,5.39,20.03,0v-8.2H247.49z"/>
	<polygon class="st7" points="285.16,145.59 2.75,145.59 2.13,146.07 285.87,146.07 	"/>
	<path class="st8" d="M238.46,113.45H49.48c-0.16,0-0.3,0.13-0.3,0.3v0.06c0,0.16,0.13,0.3,0.3,0.3h188.98c0.16,0,0.3-0.13,0.3-0.3
		v-0.06C238.75,113.58,238.62,113.45,238.46,113.45z"/>
</g>
<g>
	<path class="st0" d="M76.72,96.58l-0.91,4.28h-0.27h-3.53H67.3h-1.39h-3v-0.75c0.32-0.07,0.62-0.2,0.91-0.38
		c0.25-0.14,0.46-0.35,0.64-0.62c0.18-0.27,0.3-0.63,0.37-1.1c0-0.29,0.01-0.52,0.03-0.7c0.02-0.18,0.03-0.32,0.03-0.43V79.81
		c-0.11-0.36-0.26-0.64-0.46-0.86c-0.2-0.21-0.4-0.39-0.62-0.54c-0.25-0.14-0.5-0.25-0.75-0.32v-0.7h2.95h0.16h2.95v0.7
		c-0.25,0.07-0.5,0.18-0.75,0.32c-0.21,0.14-0.43,0.32-0.64,0.54c-0.21,0.21-0.36,0.5-0.43,0.86v19.97h5.73
		c0.57-0.07,1.05-0.27,1.45-0.59c0.39-0.32,0.73-0.68,1.02-1.07c0.32-0.43,0.57-0.95,0.75-1.55H76.72z"/>
	<path class="st0" d="M95.25,100.86h-2.04h-1.98H89.2v-0.75c0.32-0.07,0.62-0.2,0.91-0.38c0.25-0.18,0.47-0.4,0.67-0.67
		c0.2-0.27,0.33-0.65,0.4-1.15c0-0.25,0.01-0.46,0.03-0.62c0.02-0.16,0.03-0.29,0.03-0.4v-8.41c0-0.14-0.02-0.29-0.05-0.43
		c-0.04-0.25-0.16-0.57-0.38-0.96c-0.29-0.29-0.57-0.43-0.86-0.43c-0.14,0-0.29,0.02-0.43,0.05l-0.38-0.54l0.16-0.05l3.91-2.2v1.71
		v1.77v0.64v8.84c0,0.11,0.01,0.24,0.03,0.4c0.02,0.16,0.03,0.37,0.03,0.62c0.04,0.5,0.16,0.88,0.38,1.15
		c0.21,0.27,0.45,0.49,0.7,0.67c0.29,0.18,0.59,0.3,0.91,0.38V100.86z M92.92,79.25c-0.38-0.38-0.83-0.56-1.37-0.56
		c-0.54,0-0.99,0.19-1.37,0.56c-0.38,0.38-0.56,0.83-0.56,1.37c0,0.54,0.19,0.99,0.56,1.37c0.37,0.38,0.83,0.56,1.37,0.56
		c0.54,0,0.99-0.19,1.37-0.56s0.56-0.83,0.56-1.37C93.49,80.08,93.3,79.63,92.92,79.25z"/>
	<path class="st0" d="M121.22,107.5c0.07,0.39,0.21,0.7,0.43,0.91s0.43,0.39,0.64,0.54c0.25,0.14,0.52,0.25,0.8,0.32v0.75h-1.88
		h-0.73h-0.42h-0.83h-1.82v-0.75c0.25-0.04,0.5-0.13,0.75-0.27c0.18-0.11,0.38-0.26,0.59-0.46s0.38-0.46,0.48-0.78l-0.04-8.14
		c-0.39,0.39-0.91,0.74-1.55,1.04c-0.64,0.3-1.44,0.46-2.4,0.46c-1.42,0-2.61-0.31-3.57-0.94s-1.74-1.4-2.35-2.33
		c-0.61-0.93-1.04-1.91-1.31-2.95c-0.27-1.04-0.4-1.98-0.4-2.84c0-1.07,0.17-2.1,0.51-3.08c0.34-0.98,0.8-1.84,1.39-2.57
		c0.59-0.73,1.29-1.31,2.09-1.74c0.8-0.43,1.67-0.64,2.6-0.64c1.11,0,2.07,0.1,2.89,0.29s1.53,0.58,2.14,1.15l0.99-1.61h0.99V107.5z
		 M115.76,99.95c1.5,0.11,2.66-0.29,3.48-1.18V87.04c-0.39-0.68-0.91-1.15-1.55-1.42s-1.43-0.38-2.36-0.35
		c-1.07,0.07-1.95,0.35-2.65,0.83c-0.7,0.48-1.24,1.05-1.63,1.71c-0.39,0.66-0.67,1.38-0.83,2.14c-0.16,0.77-0.26,1.44-0.29,2.01
		c-0.04,0.93,0.09,1.87,0.38,2.81c0.29,0.95,0.69,1.79,1.21,2.54c0.52,0.75,1.14,1.37,1.87,1.85
		C114.11,99.65,114.91,99.91,115.76,99.95z"/>
	<path class="st0" d="M148.54,99.07c0.21,0.27,0.45,0.49,0.7,0.67c0.29,0.18,0.59,0.3,0.91,0.38v0.75h-1.98h-1.12h-0.86v-2.73
		c-0.21,0.25-0.47,0.54-0.78,0.88c-0.3,0.34-0.67,0.65-1.1,0.94c-0.43,0.29-0.91,0.53-1.45,0.72c-0.54,0.2-1.11,0.29-1.71,0.29
		c-1.68-0.04-2.87-0.56-3.56-1.58s-1.04-2.26-1.04-3.72v-9c-0.07-0.43-0.21-0.78-0.4-1.04s-0.42-0.47-0.67-0.62
		c-0.29-0.14-0.59-0.27-0.91-0.38v-0.75h1.98h1.12h0.86v11.78c0.04,0.68,0.16,1.29,0.37,1.82c0.18,0.46,0.47,0.88,0.88,1.23
		s0.99,0.54,1.74,0.54c2,0,3.55-0.93,4.66-2.79v-8.35c-0.04-0.07-0.05-0.18-0.05-0.32c0-0.11-0.01-0.24-0.03-0.4
		c-0.02-0.16-0.03-0.35-0.03-0.56c-0.07-0.5-0.21-0.88-0.4-1.15s-0.42-0.49-0.67-0.67c-0.29-0.18-0.59-0.3-0.91-0.38v-0.75h3.11
		h0.96v13.87v0.16C148.2,98.41,148.32,98.8,148.54,99.07z"/>
	<path class="st0" d="M176.06,98.99c-0.14,0.11-0.38,0.27-0.72,0.48c-0.34,0.21-0.75,0.41-1.23,0.59c-0.48,0.18-1.02,0.35-1.61,0.51
		c-0.59,0.16-1.21,0.24-1.85,0.24c-0.18,0-0.38-0.01-0.59-0.03c-0.21-0.02-0.41-0.04-0.59-0.08c-1-0.07-1.94-0.33-2.81-0.77
		c-0.88-0.44-1.64-1.02-2.3-1.73c-0.66-0.71-1.18-1.54-1.55-2.48c-0.37-0.94-0.56-1.95-0.56-3.02c0-1.25,0.22-2.43,0.67-3.55
		s1.08-2.05,1.9-2.8c0.75-0.75,1.63-1.31,2.65-1.68c1.02-0.37,2.08-0.56,3.19-0.56c0.5,0,1.02,0.05,1.55,0.16
		c0.54,0.11,1.02,0.25,1.45,0.43c1.61,0.57,2.95,1.51,4.04,2.83c1.09,1.32,1.63,2.92,1.63,4.8c0,1.32-0.3,2.57-0.91,3.76
		S177.02,98.24,176.06,98.99z M164.92,92.86c0.04,1.11,0.25,2.1,0.64,2.96c0.39,0.86,0.88,1.58,1.47,2.15
		c0.59,0.57,1.25,1,1.98,1.29c0.73,0.29,1.44,0.41,2.12,0.38c0.78-0.07,1.54-0.34,2.28-0.81c0.73-0.47,1.37-1.04,1.93-1.72
		s0.98-1.43,1.29-2.26s0.42-1.63,0.35-2.42c-0.11-1.11-0.37-2.11-0.78-3.01c-0.41-0.89-0.92-1.65-1.53-2.26
		c-0.61-0.61-1.26-1.07-1.96-1.37s-1.38-0.46-2.06-0.46c-0.79,0-1.53,0.24-2.22,0.73s-1.31,1.09-1.85,1.83
		c-0.54,0.74-0.95,1.55-1.23,2.45C165.06,91.23,164.92,92.07,164.92,92.86z"/>
	<path class="st0" d="M200.64,83.88c0.32,0.07,0.62,0.18,0.91,0.32c0.21,0.14,0.42,0.35,0.62,0.62c0.2,0.27,0.28,0.63,0.24,1.1
		c-0.04,0.29-0.13,0.52-0.27,0.7c-0.11,0.18-0.26,0.34-0.46,0.48s-0.46,0.2-0.78,0.16c-0.46,0-0.8-0.1-1.02-0.29
		c-0.21-0.2-0.36-0.42-0.43-0.67c-0.11-0.29-0.16-0.59-0.16-0.91c-0.54-0.18-1.05-0.2-1.55-0.05c-0.43,0.11-0.89,0.37-1.39,0.78
		c-0.5,0.41-0.96,1.1-1.39,2.06v10.28c0.11,0.39,0.26,0.7,0.46,0.91c0.2,0.21,0.4,0.37,0.62,0.48c0.25,0.14,0.52,0.23,0.8,0.27v0.75
		h-1.88h-0.78h-0.42h-0.78h-1.82v-0.75c0.25-0.04,0.5-0.12,0.75-0.27c0.18-0.11,0.38-0.27,0.59-0.48c0.21-0.21,0.38-0.5,0.48-0.86
		V86.83c-0.07-0.46-0.2-0.83-0.37-1.1c-0.18-0.27-0.39-0.49-0.64-0.67c-0.29-0.18-0.59-0.3-0.91-0.38v-0.75h1.93h1.1h0.89v2.95
		c0.43-0.71,1.13-1.37,2.12-1.98C198.06,84.29,199.25,83.96,200.64,83.88z"/>
	<path class="st0" d="M214.89,96.42c0.07,0.25,0.16,0.48,0.27,0.7c0.07,0.18,0.17,0.38,0.29,0.59c0.12,0.21,0.28,0.39,0.46,0.54
		c0.29,0.21,0.79,0.4,1.5,0.56c0.71,0.16,1.45,0.21,2.2,0.16c0.75-0.05,1.42-0.26,2.01-0.62c0.59-0.36,0.88-0.95,0.88-1.77
		c0-0.82-0.2-1.47-0.59-1.95c-0.39-0.48-0.89-0.87-1.5-1.15c-0.61-0.29-1.26-0.53-1.95-0.72c-0.7-0.2-1.35-0.46-1.96-0.78
		c-0.61-0.32-1.11-0.75-1.5-1.29c-0.39-0.54-0.59-1.29-0.59-2.25c0-1.14,0.44-2.16,1.31-3.05c0.87-0.89,2.06-1.37,3.56-1.45
		c1.53-0.07,2.73-0.02,3.59,0.16c0.5,0.11,0.96,0.21,1.39,0.32l-0.48,3.64l-0.43-0.05c-0.21-0.46-0.45-0.89-0.7-1.29
		c-0.21-0.32-0.48-0.62-0.8-0.91c-0.32-0.29-0.68-0.46-1.07-0.54c-0.82-0.11-1.5-0.08-2.04,0.08c-0.54,0.16-0.95,0.37-1.23,0.62
		c-0.36,0.29-0.61,0.63-0.75,1.02c-0.32,0.86-0.32,1.54,0,2.04c0.32,0.5,0.81,0.93,1.47,1.29c0.66,0.36,1.4,0.69,2.22,0.99
		c0.82,0.3,1.6,0.68,2.33,1.12c0.73,0.45,1.32,1.02,1.77,1.71c0.45,0.7,0.62,1.62,0.51,2.76c-0.07,0.75-0.28,1.38-0.62,1.87
		c-0.34,0.5-0.77,0.89-1.29,1.18c-0.52,0.29-1.09,0.49-1.71,0.62c-0.63,0.13-1.26,0.21-1.9,0.24c-1.54,0.07-3.25-0.11-5.14-0.54
		v-3.91L214.89,96.42z"/>
</g>
</svg>
